<?xml version="1.0" encoding="UTF-8"?>
<svg version="1.1" xmlns="http://www.w3.org/2000/svg" width="256" height="256">
<path d="M0 0 C29.7 0 59.4 0 90 0 C90 11.55 90 23.1 90 35 C100.89 35 111.78 35 123 35 C123 23.45 123 11.9 123 0 C129.27 0 135.54 0 142 0 C142 11.55 142 23.1 142 35 C153.55 35 165.1 35 177 35 C177 23.45 177 11.9 177 0 C203.07 0 229.14 0 256 0 C256 5.94 256 11.88 256 18 C235.87 18 215.74 18 195 18 C195 35.49 195 52.98 195 71 C215.13 71 235.26 71 256 71 C256 76.94 256 82.88 256 89 C229.93 89 203.86 89 177 89 C177 77.45 177 65.9 177 54 C165.45 54 153.9 54 142 54 C142 65.55 142 77.1 142 89 C135.73 89 129.46 89 123 89 C123 77.45 123 65.9 123 54 C112.11 54 101.22 54 90 54 C90 65.55 90 77.1 90 89 C60.3 89 30.6 89 0 89 C0 59.63 0 30.26 0 0 Z M19 19 C19 35.83 19 52.66 19 70 C36.16 70 53.32 70 71 70 C71 53.17 71 36.34 71 19 C53.84 19 36.68 19 19 19 Z " fill="#000000" transform="translate(0,84)"/>
<path d="M0 0 C26.07 0 52.14 0 79 0 C79 5.94 79 11.88 79 18 C58.87 18 38.74 18 18 18 C18 35.49 18 52.98 18 71 C38.13 71 58.26 71 79 71 C79 76.94 79 82.88 79 89 C52.93 89 26.86 89 0 89 C0 59.63 0 30.26 0 0 Z " fill="#000000" transform="translate(177,84)"/>
<path d="M0 0 C6.27 0 12.54 0 19 0 C19 11.55 19 23.1 19 35 C30.55 35 42.1 35 54 35 C54 41.27 54 47.54 54 54 C42.45 54 30.9 54 19 54 C19 65.55 19 77.1 19 89 C12.73 89 6.46 89 0 89 C0 77.45 0 65.9 0 54 C-11.22 54 -22.44 54 -34 54 C-34.020625 51.050625 -34.04125 48.10125 -34.0625 45.0625 C-34.071604 44.13187744 -34.08070801 43.20125488 -34.09008789 42.24243164 C-34.09258545 41.51403076 -34.09508301 40.78562988 -34.09765625 40.03515625 C-34.10289307 39.2862915 -34.10812988 38.53742676 -34.11352539 37.76586914 C-34 36 -34 36 -33 35 C-30.55196233 34.9115717 -28.13155206 34.88464028 -25.68359375 34.90234375 C-25.03588013 34.90335083 -24.3881665 34.90435791 -23.7208252 34.90539551 C-21.29303221 34.91064157 -18.86526439 34.92460275 -16.4375 34.9375 C-8.3009375 34.9684375 -8.3009375 34.9684375 0 35 C0 23.45 0 11.9 0 0 Z " fill="#EC1B2D" transform="translate(123,84)"/>
</svg>
